<svg width="259" height="164" viewBox="0 0 259 164" fill="none" xmlns="http://www.w3.org/2000/svg">
<path d="M0 39.6033C0 17.731 17.731 0 39.6033 0H219.96C241.521 0 259 17.4786 259 39.0396C259 50.9729 253.542 62.2508 244.184 69.6552L157.083 138.571C138.394 153.357 111.867 152.9 93.6997 137.477L13.9731 69.7946C5.10932 62.2699 0 51.2303 0 39.6033Z" fill="#9333ea"/>
<path d="M104.66 40.8526V72.9526C104.66 76.1926 104 78.6526 102.68 80.3326C101.36 82.0126 99.24 82.8526 96.32 82.8526H90.38L78.02 54.2326V82.8526H70.1V40.8526H79.64L94.88 75.6526H95C95.68 75.6526 96.14 75.3726 96.38 74.8126C96.62 74.2126 96.74 73.1526 96.74 71.6326V40.8526H104.66ZM112.663 53.9326C112.663 49.6926 113.823 46.4526 116.143 44.2126C118.463 41.9726 122.283 40.8526 127.603 40.8526H141.643V47.4526H127.603C125.403 47.4526 123.763 47.9726 122.683 49.0126C121.643 50.0526 121.123 51.6926 121.123 53.9326V59.7526H139.003V66.3526H121.123V82.8526H112.663V53.9326ZM148.85 40.8526H153.23C155.43 40.8526 157.19 41.1526 158.51 41.7526C159.83 42.3526 160.97 43.3126 161.93 44.6326C162.89 45.9126 164.01 47.8526 165.29 50.4526L168.77 57.4726L172.25 50.4526C173.53 47.8526 174.65 45.9126 175.61 44.6326C176.57 43.3126 177.71 42.3526 179.03 41.7526C180.35 41.1526 182.11 40.8526 184.31 40.8526H188.69V82.8526H181.01V49.6726C180.53 49.6726 180.13 49.8926 179.81 50.3326C179.49 50.7726 179.01 51.5526 178.37 52.6726L168.77 70.4926L159.17 52.6726C158.53 51.5526 158.05 50.7726 157.73 50.3326C157.41 49.8926 157.01 49.6526 156.53 49.6126V82.8526H148.85V40.8526Z" fill="white"/>
<defs>
<linearGradient id="paint0_linear_2_80" x1="910.678" y1="-104.363" x2="1169.68" y2="-104.363" gradientUnits="userSpaceOnUse">
<stop stop-color="#9333ea" stop-opacity="0.51"/>
<stop offset="1" stop-color="#EDA4FF" stop-opacity="0.89"/>
</linearGradient>
</defs>
</svg>
